<svg width="66" height="43" viewBox="0 0 66 43" fill="none" xmlns="http://www.w3.org/2000/svg">
<path d="M1.3194 39.7773V29.952H5.92329C7.10233 29.952 8.00065 30.1859 8.61824 30.6538C9.23583 31.1123 9.54463 31.7299 9.54463 32.5066C9.54463 33.0306 9.42298 33.4798 9.17969 33.8541C8.93639 34.219 8.60888 34.5044 8.19715 34.7103C7.79478 34.9068 7.35498 35.005 6.87775 35.005L7.1304 34.4997C7.68249 34.4997 8.17844 34.6027 8.61824 34.8085C9.05804 35.005 9.40427 35.2951 9.65692 35.6788C9.91893 36.0624 10.0499 36.5397 10.0499 37.1105C10.0499 37.9526 9.7271 38.6077 9.08144 39.0755C8.43577 39.5434 7.47663 39.7773 6.20401 39.7773H1.3194ZM3.14411 38.3456H6.09172C6.77482 38.3456 7.29884 38.2334 7.66378 38.0088C8.02872 37.7842 8.21119 37.4239 8.21119 36.928C8.21119 36.4414 8.02872 36.0858 7.66378 35.8612C7.29884 35.6273 6.77482 35.5103 6.09172 35.5103H3.00375V34.0927H5.72678C6.36309 34.0927 6.84968 33.9804 7.18655 33.7558C7.53277 33.5312 7.70589 33.1944 7.70589 32.7452C7.70589 32.2867 7.53277 31.9451 7.18655 31.7206C6.84968 31.496 6.36309 31.3837 5.72678 31.3837H3.14411V38.3456ZM11.8289 39.7773V32.282H13.5834V39.7773H11.8289ZM12.7132 31.0468C12.3857 31.0468 12.1143 30.9439 11.8991 30.738C11.6932 30.5322 11.5903 30.2842 11.5903 29.9941C11.5903 29.6947 11.6932 29.4467 11.8991 29.2502C12.1143 29.0443 12.3857 28.9414 12.7132 28.9414C13.0407 28.9414 13.3074 29.0396 13.5133 29.2361C13.7285 29.4233 13.8361 29.6619 13.8361 29.952C13.8361 30.2608 13.7332 30.5228 13.5273 30.738C13.3214 30.9439 13.0501 31.0468 12.7132 31.0468ZM17.318 38.107L17.3601 35.9033L21.2762 32.282H23.3816L20.055 35.6226L19.1286 36.3946L17.318 38.107ZM15.8863 39.7773V29.3625H17.6408V39.7773H15.8863ZM21.5429 39.7773L18.8058 36.3946L19.9147 34.991L23.6764 39.7773H21.5429ZM28.0312 39.8756C27.1984 39.8756 26.4685 39.7118 25.8416 39.3843C25.224 39.0475 24.7421 38.5889 24.3958 38.0088C24.059 37.4286 23.8905 36.7689 23.8905 36.0297C23.8905 35.2811 24.0543 34.6214 24.3818 34.0506C24.7187 33.4704 25.1772 33.0166 25.7573 32.6891C26.3469 32.3615 27.0159 32.1978 27.7645 32.1978C28.4944 32.1978 29.1448 32.3569 29.7156 32.675C30.2864 32.9932 30.7355 33.4423 31.063 34.0225C31.3905 34.6027 31.5543 35.2858 31.5543 36.0718C31.5543 36.1466 31.5496 36.2309 31.5403 36.3244C31.5403 36.418 31.5356 36.5069 31.5262 36.5911H25.2801V35.4261H30.5998L29.9121 35.7911C29.9214 35.3606 29.8325 34.9816 29.6454 34.6541C29.4582 34.3266 29.2009 34.0693 28.8734 33.8821C28.5552 33.695 28.1856 33.6014 27.7645 33.6014C27.3341 33.6014 26.9551 33.695 26.6276 33.8821C26.3094 34.0693 26.0568 34.3313 25.8696 34.6682C25.6918 34.9957 25.6029 35.384 25.6029 35.8332V36.1139C25.6029 36.563 25.7059 36.9607 25.9117 37.307C26.1176 37.6532 26.4077 37.9199 26.782 38.107C27.1563 38.2942 27.5867 38.3878 28.0733 38.3878C28.4944 38.3878 28.8734 38.3223 29.2103 38.1913C29.5471 38.0602 29.8466 37.8544 30.1086 37.5737L31.049 38.6544C30.7121 39.0475 30.2864 39.3516 29.7717 39.5668C29.2664 39.7727 28.6862 39.8756 28.0312 39.8756ZM33.4081 39.7773V29.952H37.4505C38.3208 29.952 39.0647 30.0924 39.6823 30.3731C40.3092 30.6538 40.7911 31.0562 41.128 31.5802C41.4649 32.1042 41.6333 32.7265 41.6333 33.447C41.6333 34.1675 41.4649 34.7898 41.128 35.3138C40.7911 35.8378 40.3092 36.2402 39.6823 36.5209C39.0647 36.8017 38.3208 36.942 37.4505 36.942H34.4187L35.2328 36.0858V39.7773H33.4081ZM35.2328 36.2823L34.4187 35.398H37.3663C38.171 35.398 38.7746 35.2296 39.177 34.8927C39.5887 34.5465 39.7946 34.0646 39.7946 33.447C39.7946 32.8201 39.5887 32.3381 39.177 32.0013C38.7746 31.6644 38.171 31.496 37.3663 31.496H34.4187L35.2328 30.5977V36.2823ZM47.8364 39.7773V38.2614L47.7382 37.9386V35.2858C47.7382 34.7711 47.5838 34.3734 47.275 34.0927C46.9662 33.8026 46.4983 33.6576 45.8714 33.6576C45.4503 33.6576 45.0339 33.7231 44.6221 33.8541C44.2198 33.9851 43.8782 34.1675 43.5975 34.4015L42.9097 33.1242C43.3121 32.8154 43.7893 32.5861 44.3414 32.4364C44.9029 32.2773 45.483 32.1978 46.0819 32.1978C47.1674 32.1978 48.0049 32.4598 48.5944 32.9838C49.1933 33.4985 49.4927 34.2985 49.4927 35.384V39.7773H47.8364ZM45.4783 39.8756C44.9169 39.8756 44.4256 39.782 44.0045 39.5949C43.5835 39.3984 43.2559 39.1317 43.022 38.7948C42.7974 38.4486 42.6851 38.0602 42.6851 37.6298C42.6851 37.2087 42.7834 36.8297 42.9799 36.4929C43.1858 36.156 43.518 35.8893 43.9765 35.6928C44.435 35.4963 45.0432 35.398 45.8012 35.398H47.9768V36.563H45.9275C45.3286 36.563 44.9263 36.6613 44.7204 36.8578C44.5145 37.045 44.4116 37.2789 44.4116 37.5596C44.4116 37.8778 44.5379 38.1304 44.7906 38.3176C45.0432 38.5047 45.3941 38.5983 45.8433 38.5983C46.2737 38.5983 46.6574 38.5 46.9943 38.3035C47.3405 38.107 47.5885 37.817 47.7382 37.4333L48.0329 38.486C47.8645 38.9258 47.5604 39.2674 47.1206 39.5107C46.6901 39.754 46.1427 39.8756 45.4783 39.8756ZM51.7444 39.7773V32.282H53.4147V34.3453L53.2182 33.7418C53.4428 33.2365 53.7937 32.8528 54.2709 32.5908C54.7575 32.3288 55.3611 32.1978 56.0816 32.1978V33.8681C56.0068 33.8494 55.9366 33.84 55.8711 33.84C55.8056 33.8307 55.7401 33.826 55.6746 33.826C55.0102 33.826 54.4815 34.0225 54.0885 34.4155C53.6955 34.7992 53.499 35.3746 53.499 36.142V39.7773H51.7444ZM59.0017 38.107L59.0438 35.9033L62.9599 32.282H65.0653L61.7388 35.6226L60.8124 36.3946L59.0017 38.107ZM57.57 39.7773V29.3625H59.3245V39.7773H57.57ZM63.2266 39.7773L60.4895 36.3946L61.5984 34.991L65.3601 39.7773H63.2266Z" fill="#297FFF"/>
<path d="M36.6747 10.3652H32.8799" stroke="#297FFF" stroke-width="1.94118" stroke-miterlimit="10" stroke-linecap="round" stroke-linejoin="bevel"/>
<path d="M42.3668 20.7157L32.8799 10.3652" stroke="#297FFF" stroke-width="1.94118" stroke-miterlimit="10" stroke-linecap="round" stroke-linejoin="bevel"/>
<path d="M36.751 20.7158C36.751 23.4357 39.2555 25.7022 42.3673 25.7022C45.479 25.7022 47.9835 23.4357 47.9835 20.7158C47.9835 17.996 45.479 15.7295 42.3673 15.7295C40.3181 15.7295 38.4966 16.7117 37.5099 18.2227" stroke="#297FFF" stroke-width="1.94118" stroke-miterlimit="10" stroke-linecap="round" stroke-linejoin="bevel"/>
<path d="M23.9999 17.0892C23.6964 17.0137 23.3169 17.0137 22.9374 17.0137C20.2811 17.0137 18.0801 18.978 18.0801 21.3956C18.0801 23.8132 20.2811 25.7776 22.9374 25.7776C25.5938 25.7776 27.7947 23.8132 27.7947 21.3956" stroke="#297FFF" stroke-width="1.94118" stroke-miterlimit="10" stroke-linecap="round" stroke-linejoin="bevel"/>
<path d="M32.44 5.42089C33.5926 5.03658 34.2464 3.89113 33.9003 2.86247C33.5541 1.8338 32.3392 1.31144 31.1866 1.69575C30.034 2.08006 29.3802 3.2255 29.7263 4.25417C30.0725 5.28284 31.2874 5.8052 32.44 5.42089Z" stroke="#297FFF" stroke-width="1.94118" stroke-miterlimit="10" stroke-linecap="round" stroke-linejoin="bevel"/>
<path d="M29.6164 7.19238C27.6431 9.30781 26.1251 12.1787 25.8975 13.312" stroke="#297FFF" stroke-width="1.94118" stroke-miterlimit="10" stroke-linecap="round" stroke-linejoin="bevel"/>
<path d="M29.4641 16.6357C27.2632 17.3157 25.0622 21.3199 22.5576 20.8666L29.4641 16.6357Z" fill="#297FFF"/>
<path d="M29.4641 16.6357C27.2632 17.3157 25.0622 21.3199 22.5576 20.8666" stroke="#297FFF" stroke-width="1.94118" stroke-miterlimit="10" stroke-linecap="round" stroke-linejoin="round"/>
<path d="M25.9736 13.3872C27.7951 13.1605 30.831 14.2182 31.8176 15.5781C33.1078 17.3913 31.8176 19.809 30.4515 21.3955" stroke="#297FFF" stroke-width="1.94118" stroke-miterlimit="10" stroke-linecap="round" stroke-linejoin="round"/>
<path d="M34.0942 16.107C34.4714 16.107 34.7773 15.8026 34.7773 15.427C34.7773 15.0515 34.4714 14.7471 34.0942 14.7471C33.7169 14.7471 33.4111 15.0515 33.4111 15.427C33.4111 15.8026 33.7169 16.107 34.0942 16.107Z" fill="#297FFF"/>
</svg>
